<?xml version="1.0" encoding="UTF-8"?>
<svg version="1.1" xmlns="http://www.w3.org/2000/svg" width="500" height="500">
<path d="M0 0 C165 0 330 0 500 0 C500 165 500 330 500 500 C335 500 170 500 0 500 C0 335 0 170 0 0 Z " fill="#FEFEFE" transform="translate(0,0)"/>
<path d="M0 0 C1.32 -3.3 2.64 -6.6 4 -10 C5.98 -10 7.96 -10 10 -10 C10.6492751 3.67449331 11.16741675 17.30903057 11 31 C8.69 31 6.38 31 4 31 C3.70867187 30.2265625 3.41734375 29.453125 3.1171875 28.65625 C-1.67335762 16.4840473 -8.66935238 6.32408604 -20.953125 0.77734375 C-32.23593294 -3.50753942 -45.6650615 -3.7057326 -56.75 1.22265625 C-69.07085619 7.5002664 -75.9910638 16.5654848 -80.375 29.625 C-80.91125 31.39875 -81.4475 33.1725 -82 35 C-89.92 35 -97.84 35 -106 35 C-102.62021867 25.70560135 -99.64993628 19.69541224 -94 12 C-93.51660156 11.3296875 -93.03320312 10.659375 -92.53515625 9.96875 C-70.00488084 -18.7655143 -28.58547541 -16.95748541 0 0 Z " fill="#060606" transform="translate(298,183)"/>
<path d="M0 0 C20.72936899 -1.6445856 20.72936899 -1.6445856 25.734375 1.98046875 C27.3125 4.5625 27.3125 4.5625 28.63671875 7.32421875 C32.0005722 13.92662452 39.42974185 17.05935756 46.125 19.4375 C59.46117705 23.08177924 74.13238277 22.03445943 86.3125 15.3125 C92.55493089 11.28803892 96.5950383 5.87328226 101 0 C105.29 0 109.58 0 114 0 C114 9.9 114 19.8 114 30 C112.02 30 110.04 30 108 30 C106.11150687 25.70797017 104.45417489 21.46368466 103 17 C102.34515625 17.44730469 101.6903125 17.89460938 101.015625 18.35546875 C83.38997534 30.0312169 63.5781733 35.04071162 42.58203125 31.30859375 C25.55182425 27.69491089 10.61005152 18.75381278 1 4 C0.63326367 2.67546485 0.29397207 1.34256073 0 0 Z " fill="#050505" transform="translate(198,282)"/>
<path d="M0 0 C6.27 0 12.54 0 19 0 C19 0.66 19 1.32 19 2 C17.68 2.33 16.36 2.66 15 3 C14.82686927 7.28252066 15.28278939 10.54975076 16.71484375 14.58203125 C17.24948242 16.10280273 17.24948242 16.10280273 17.79492188 17.65429688 C18.17197266 18.69650391 18.54902344 19.73871094 18.9375 20.8125 C19.49727539 22.40481445 19.49727539 22.40481445 20.06835938 24.02929688 C21.43676568 28.85698293 21.43676568 28.85698293 24 33 C25.56944821 29.11478941 27.10054248 25.21555962 28.625 21.3125 C29.07101562 20.20970703 29.51703125 19.10691406 29.9765625 17.97070312 C30.3890625 16.90400391 30.8015625 15.83730469 31.2265625 14.73828125 C31.80784912 13.26935425 31.80784912 13.26935425 32.40087891 11.77075195 C33.13002692 8.39866525 32.69985615 6.96723668 31 4 C30.01 3.34 29.02 2.68 28 2 C28 1.34 28 0.68 28 0 C33.94 0 39.88 0 46 0 C46 0.66 46 1.32 46 2 C44.35 2 42.7 2 41 2 C42.60527794 9.50434807 44.46964128 16.88683282 46.625 24.25 C46.84309326 25.00079834 47.06118652 25.75159668 47.28588867 26.52514648 C48.11221191 30.04459886 48.11221191 30.04459886 50 33 C51.51310125 28.9422595 53.00815988 24.87810033 54.5 20.8125 C54.92925781 19.66201172 55.35851562 18.51152344 55.80078125 17.32617188 C56.20683594 16.21435547 56.61289062 15.10253906 57.03125 13.95703125 C57.40830078 12.93585205 57.78535156 11.91467285 58.17382812 10.86254883 C58.97835525 8.07499548 59.16659425 5.88069216 59 3 C58.01 2.67 57.02 2.34 56 2 C56 1.34 56 0.68 56 0 C60.62 0 65.24 0 70 0 C70 0.66 70 1.32 70 2 C69.25274658 2.35425049 68.50549316 2.70850098 67.7355957 3.07348633 C63.74208112 5.88587576 62.85217131 9.33091275 61.23046875 13.82421875 C60.90460281 14.68561966 60.57873688 15.54702057 60.24299622 16.43452454 C59.20858214 19.17985653 58.197854 21.93323414 57.1875 24.6875 C56.48917535 26.55331341 55.78932281 28.41855574 55.08789062 30.28320312 C53.37414504 34.84903792 51.68158527 39.42222818 50 44 C48.68 44 47.36 44 46 44 C42.7 34.1 39.4 24.2 36 14 C32.57735825 22.21434019 29.35887893 30.33863172 26.5078125 38.74414062 C26.22421875 39.54400391 25.940625 40.34386719 25.6484375 41.16796875 C25.40270996 41.88235107 25.15698242 42.5967334 24.90380859 43.33276367 C24 45 24 45 21 46 C20.58637207 44.86981445 20.17274414 43.73962891 19.74658203 42.57519531 C18.20955624 38.37738688 16.66945068 34.18071395 15.12841797 29.984375 C14.46221366 28.16892772 13.79684199 26.35317467 13.13232422 24.53710938 C12.17634969 21.9249697 11.21737417 19.31394873 10.2578125 16.703125 C9.96190216 15.89256653 9.66599182 15.08200806 9.3611145 14.24688721 C9.08097504 13.48640076 8.80083557 12.72591431 8.51220703 11.94238281 C8.26793976 11.27619934 8.02367249 10.61001587 7.77200317 9.92364502 C6.1315858 5.42587113 6.1315858 5.42587113 2.375 2.75 C1.59125 2.5025 0.8075 2.255 0 2 C0 1.34 0 0.68 0 0 Z " fill="#0E0E0E" transform="translate(263,223)"/>
<path d="M0 0 C4.17702099 -0.69970402 7.83457404 -0.85029351 12 0 C15.26182122 2.51673515 17.37583185 5.62675621 19.65576172 9.03369141 C21.2428559 11.35524181 22.91391513 13.60305554 24.59765625 15.85546875 C33.61078457 27.91617685 33.61078457 27.91617685 37 33 C37 23.1 37 13.2 37 3 C34.525 2.505 34.525 2.505 32 2 C32 1.34 32 0.68 32 0 C37.28 0 42.56 0 48 0 C48 0.66 48 1.32 48 2 C46.7934375 2.4640625 46.7934375 2.4640625 45.5625 2.9375 C43.10919595 3.76335345 43.10919595 3.76335345 42 5 C41.83970312 7.95529504 41.74042672 10.88982457 41.68359375 13.84765625 C41.66281265 14.7340831 41.64203156 15.62050995 41.62062073 16.53379822 C41.555026 19.376617 41.49619448 22.21953117 41.4375 25.0625 C41.3943242 26.98503606 41.35071022 28.90756234 41.30664062 30.83007812 C41.19933457 35.55328668 41.09809549 40.27659153 41 45 C36.26855469 44.27978516 36.26855469 44.27978516 33.8515625 41.76171875 C33.11679687 40.74722656 32.38203125 39.73273438 31.625 38.6875 C30.76563236 37.52082791 29.9062568 36.35416166 29.046875 35.1875 C28.57314453 34.53394531 28.09941406 33.88039063 27.61132812 33.20703125 C25.15160844 29.83796066 22.63625933 26.51116354 20.12597656 23.1796875 C17.07618472 19.1256475 14.0394447 15.06180337 11 11 C11 20.9 11 30.8 11 41 C12.32 41.66 13.64 42.32 15 43 C15 43.66 15 44.32 15 45 C10.05 45 5.1 45 0 45 C0 44.34 0 43.68 0 43 C2.475 42.505 2.475 42.505 5 42 C5 29.46 5 16.92 5 4 C2.525 3.01 2.525 3.01 0 2 C0 1.34 0 0.68 0 0 Z " fill="#0A0A0A" transform="translate(388,223)"/>
<path d="M0 0 C7.02535474 3.56232652 11.77449833 7.62737877 14.65234375 15.08984375 C16.53985392 21.6235328 15.36259949 26.87007244 12.7109375 32.97265625 C9.82457883 37.93106569 5.79256132 41.34625948 0.515625 43.53515625 C-6.03446773 45.25255861 -13.75966178 45.72651423 -20.23046875 43.5 C-26.45833131 39.83796863 -31.42703314 34.24804113 -33.6875 27.375 C-34.79388107 19.85373641 -33.95067686 13.91004256 -29.67578125 7.57421875 C-22.06848974 -0.84013316 -10.64986444 -4.4024311 0 0 Z M-21.6875 6.375 C-26.70286638 13.29274673 -26.34376655 21.11158736 -25.6875 29.375 C-24.47042943 33.92336661 -22.47111739 36.61049523 -19.125 39.875 C-13.18586221 42.46662376 -7.33884749 42.29092004 -1.25 40.1875 C3.5434959 36.79697851 6.06276702 33.10294284 7.3125 27.375 C8.00493485 19.93657109 7.92009805 13.52340254 3.3125 7.375 C-2.00780058 2.43472089 -5.59338654 2.02567017 -12.69921875 2.09375 C-16.69188764 2.4695306 -18.79058459 3.62664435 -21.6875 6.375 Z " fill="#0F0F0F" transform="translate(149.6875,223.625)"/>
<path d="M0 0 C1.88478088 0.27212524 1.88478088 0.27212524 4 1 C5.05479431 2.58065796 5.05479431 2.58065796 5.84350586 4.64599609 C6.14739731 5.41704681 6.45128876 6.18809753 6.76438904 6.98251343 C7.07803909 7.82101837 7.39168915 8.65952332 7.71484375 9.5234375 C8.05246231 10.38055328 8.39008087 11.23766907 8.7379303 12.12075806 C10.18435247 15.79353573 11.59462687 19.47988111 13.0065918 23.16601562 C14.04184927 25.85306698 15.09645214 28.53194174 16.15234375 31.2109375 C16.46396957 32.04539398 16.7755954 32.87985046 17.09666443 33.73959351 C18.96095121 38.45948567 20.23226479 40.73023865 25 43 C25 43.66 25 44.32 25 45 C18.73 45 12.46 45 6 45 C6 44.34 6 43.68 6 43 C7.65 42.34 9.3 41.68 11 41 C10.42732628 36.89583836 9.5731146 33.9327865 8 30 C2.72 30 -2.56 30 -8 30 C-9.87404046 34.68510114 -10.19157797 37.11476189 -10 42 C-9.01 42.33 -8.02 42.66 -7 43 C-7 43.66 -7 44.32 -7 45 C-11.62 45 -16.24 45 -21 45 C-21 44.34 -21 43.68 -21 43 C-19.88588745 42.47539185 -19.88588745 42.47539185 -18.74926758 41.94018555 C-14.70183236 39.08387015 -13.72329445 35.49485102 -12.01171875 30.95703125 C-11.66365677 30.0734343 -11.31559479 29.18983734 -10.95698547 28.27946472 C-9.85160015 25.46293165 -8.76936815 22.63813874 -7.6875 19.8125 C-6.94096346 17.89849877 -6.19293351 15.9850793 -5.44335938 14.07226562 C-3.61152499 9.38807853 -1.80040071 4.69635364 0 0 Z " fill="#0B0B0B" transform="translate(357,223)"/>
<path d="M0 0 C11.22 0 22.44 0 34 0 C34 3.3 34 6.6 34 10 C33.34 10 32.68 10 32 10 C31.7525 9.21625 31.505 8.4325 31.25 7.625 C29.75856271 4.4929817 29.1896579 4.17513712 26 3 C21.33894889 2.44109568 16.69092715 2.26060706 12 2 C12 7.94 12 13.88 12 20 C13.44375 19.7525 14.8875 19.505 16.375 19.25 C17.18710938 19.11078125 17.99921875 18.9715625 18.8359375 18.828125 C21.17709092 18.18250739 21.17709092 18.18250739 22.2890625 15.921875 C22.52367187 15.28765625 22.75828125 14.6534375 23 14 C23.66 14 24.32 14 25 14 C25 18.95 25 23.9 25 29 C24.34 29 23.68 29 23 29 C22.76539063 28.36578125 22.53078125 27.7315625 22.2890625 27.078125 C21.17709092 24.81749261 21.17709092 24.81749261 18.8359375 24.171875 C18.02382812 24.03265625 17.21171875 23.8934375 16.375 23.75 C14.93125 23.5025 13.4875 23.255 12 23 C12.33 28.94 12.66 34.88 13 41 C16.8671875 41.061875 16.8671875 41.061875 20.8125 41.125 C21.62050049 41.14320801 22.42850098 41.16141602 23.26098633 41.18017578 C27.06519761 41.20976568 28.76428169 41.15714554 32 39 C33.20450304 36.44816596 33.20450304 36.44816596 34 34 C34.66 34 35.32 34 36 34 C36 37.63 36 41.26 36 45 C23.79 45 11.58 45 -1 45 C-1 44.34 -1 43.68 -1 43 C1.97 42.505 1.97 42.505 5 42 C5 29.46 5 16.92 5 4 C2.525 3.01 2.525 3.01 0 2 C0 1.34 0 0.68 0 0 Z " fill="#040404" transform="translate(221,223)"/>
<path d="M0 0 C0 -0.99 0 -1.98 0 -3 C0.66 -3 1.32 -3 2 -3 C2 1.29 2 5.58 2 10 C1.34 10 0.68 10 0 10 C-0.53625 8.906875 -1.0725 7.81375 -1.625 6.6875 C-3.79820101 2.92061826 -5.79209174 1.40263609 -10 0 C-14.97955286 -0.63376127 -18.14343797 0.19991702 -22.421875 2.5390625 C-25.92472776 5.78180243 -27.14973342 9.59616808 -27.43359375 14.2421875 C-27.45069281 15.78636421 -27.45167886 17.33079371 -27.4375 18.875 C-27.45748047 19.63941406 -27.47746094 20.40382812 -27.49804688 21.19140625 C-27.49334632 26.7286639 -26.43801694 31.53279345 -23 36 C-18.27209914 38.87211659 -13.37438032 38.6153276 -8 38 C-3.80859177 36.12883561 -1.94078089 34.35633017 -0.125 30.25 C0.24625 29.1775 0.6175 28.105 1 27 C1.99 27 2.98 27 4 27 C4 31.95 4 36.9 4 42 C3.01 42 2.02 42 1 42 C1 40.68 1 39.36 1 38 C0.28650391 38.433125 0.28650391 38.433125 -0.44140625 38.875 C-8.16392154 42.97091971 -17.15396115 43.77071801 -25.56640625 41.22265625 C-30.30107526 38.69809839 -33.01131525 34.86378446 -35.15234375 30.015625 C-37.17844078 22.80757474 -37.49099535 14.31696434 -34.375 7.375 C-26.01111835 -6.1539454 -12.7727527 -5.97306181 0 0 Z " fill="#0F0F0F" transform="translate(102,226)"/>
<path d="M0 0 C5.61 0 11.22 0 17 0 C17 0.66 17 1.32 17 2 C15.02 2.99 15.02 2.99 13 4 C12.9506349 8.94790177 12.91429731 13.89566083 12.89013672 18.84375 C12.88006683 20.52769466 12.86641012 22.21162179 12.84912109 23.89550781 C12.82491574 26.31319501 12.81352704 28.73065143 12.8046875 31.1484375 C12.79436493 31.9036972 12.78404236 32.65895691 12.77340698 33.43710327 C12.77300682 35.2929398 12.87777284 37.1481928 13 39 C14.89899313 41.32867066 14.89899313 41.32867066 18.1171875 41.265625 C19.35726562 41.26046875 20.59734375 41.2553125 21.875 41.25 C23.10992187 41.25515625 24.34484375 41.2603125 25.6171875 41.265625 C28.76032364 41.01881985 30.46001015 40.80065008 33 39 C34.76727858 35.9665533 34.76727858 35.9665533 36 33 C36.66 33 37.32 33 38 33 C38.02712066 34.43739513 38.04645067 35.87493863 38.0625 37.3125 C38.07410156 38.11300781 38.08570313 38.91351563 38.09765625 39.73828125 C38 42 38 42 37 45 C24.46 45 11.92 45 -1 45 C-1 44.34 -1 43.68 -1 43 C-0.195625 42.690625 0.60875 42.38125 1.4375 42.0625 C3.89080405 41.23664655 3.89080405 41.23664655 5 40 C5.08858646 37.26105915 5.11523479 34.5474673 5.09765625 31.80859375 C5.0962413 30.98875504 5.09482635 30.16891632 5.09336853 29.32423401 C5.08775289 26.69528618 5.07519779 24.06642227 5.0625 21.4375 C5.05748701 19.65950643 5.05292376 17.88151154 5.04882812 16.10351562 C5.03777839 11.73564455 5.02050331 7.36783652 5 3 C3.35 2.67 1.7 2.34 0 2 C0 1.34 0 0.68 0 0 Z " fill="#0B0B0B" transform="translate(175,223)"/>
<path d="M0 0 C6.27 0 12.54 0 19 0 C19 0.66 19 1.32 19 2 C17.68 2.33 16.36 2.66 15 3 C14.82218926 7.30635393 15.29425658 10.56840111 16.75 14.6171875 C17.1109375 15.63554687 17.471875 16.65390625 17.84375 17.703125 C18.2253125 18.74984375 18.606875 19.7965625 19 20.875 C19.3815625 21.94492188 19.763125 23.01484375 20.15625 24.1171875 C21.09579936 26.74792571 22.04392134 29.37523351 23 32 C25.46278801 32 26.85224119 31.14547137 29 30 C28.24360531 32.48444265 27.47090472 34.96158192 26.6875 37.4375 C26.36749023 38.49807617 26.36749023 38.49807617 26.04101562 39.58007812 C25.45169023 41.41842153 24.7329582 43.21405959 24 45 C22.515 45.495 22.515 45.495 21 46 C20.58637207 44.86981445 20.17274414 43.73962891 19.74658203 42.57519531 C18.20955624 38.37738688 16.66945068 34.18071395 15.12841797 29.984375 C14.46221366 28.16892772 13.79684199 26.35317467 13.13232422 24.53710938 C12.17634969 21.9249697 11.21737417 19.31394873 10.2578125 16.703125 C9.96190216 15.89256653 9.66599182 15.08200806 9.3611145 14.24688721 C9.08097504 13.48640076 8.80083557 12.72591431 8.51220703 11.94238281 C8.26793976 11.27619934 8.02367249 10.61001587 7.77200317 9.92364502 C6.1315858 5.42587113 6.1315858 5.42587113 2.375 2.75 C1.59125 2.5025 0.8075 2.255 0 2 C0 1.34 0 0.68 0 0 Z " fill="#080808" transform="translate(263,223)"/>
<path d="M0 0 C2.57966596 2.57966596 3.33609844 5.09307892 4.625 8.5 C5.07101562 9.6653125 5.51703125 10.830625 5.9765625 12.03125 C7 15 7 15 7 17 C2.71 17 -1.58 17 -6 17 C-5.19980115 12.19880692 -4.45116558 9.35886096 -2.4375 5.125 C-1.75494141 3.67480469 -1.75494141 3.67480469 -1.05859375 2.1953125 C-0.70925781 1.47085938 -0.35992187 0.74640625 0 0 Z " fill="#E9E9E9" transform="translate(357,232)"/>
<path d="M0 0 C0.99 0 1.98 0 3 0 C3 4.95 3 9.9 3 15 C2.01 15 1.02 15 0 15 C0 13.68 0 12.36 0 11 C-0.598125 11.350625 -1.19625 11.70125 -1.8125 12.0625 C-4 13 -4 13 -7 12 C-6.21625 10.948125 -5.4325 9.89625 -4.625 8.8125 C-2.59491421 5.98303198 -1.10887021 3.32661064 0 0 Z " fill="#1F1F1F" transform="translate(103,253)"/>
<path d="M0 0 C0.66 0 1.32 0 2 0 C2 4.95 2 9.9 2 15 C1.34 15 0.68 15 0 15 C-0.35191406 14.04867187 -0.35191406 14.04867187 -0.7109375 13.078125 C-1.82290908 10.81749261 -1.82290908 10.81749261 -4.1640625 10.171875 C-4.97617188 10.03265625 -5.78828125 9.8934375 -6.625 9.75 C-7.44226563 9.60046875 -8.25953125 9.4509375 -9.1015625 9.296875 C-9.72804687 9.19890625 -10.35453125 9.1009375 -11 9 C-11 8.01 -11 7.02 -11 6 C-10.37351563 5.90203125 -9.74703125 5.8040625 -9.1015625 5.703125 C-7.87566406 5.47882813 -7.87566406 5.47882813 -6.625 5.25 C-5.81289062 5.11078125 -5.00078125 4.9715625 -4.1640625 4.828125 C-1.82290908 4.18250739 -1.82290908 4.18250739 -0.7109375 1.921875 C-0.47632813 1.28765625 -0.24171875 0.6534375 0 0 Z " fill="#0F0F0F" transform="translate(244,237)"/>
<path d="M0 0 C0.66 0.33 1.32 0.66 2 1 C-0.97 8.92 -0.97 8.92 -4 17 C-4.99 16.67 -5.98 16.34 -7 16 C-6.37099631 12.3945768 -5.41162002 9.15080065 -4.0625 5.75 C-3.72347656 4.87859375 -3.38445312 4.0071875 -3.03515625 3.109375 C-2 1 -2 1 0 0 Z " fill="#1A1A1A" transform="translate(355,232)"/>
</svg>
